<svg width="16" height="16" xmlns="http://www.w3.org/2000/svg">

 <g>
  <title>background</title>
  <rect fill="none" id="canvas_background" height="402" width="582" y="-1" x="-1"/>
 </g>
 <g>
  <title>Layer 1</title>
  <path id="svg_1" d="m6.6,3.1c0.2,1.3 0.4,1.6 0.4,2.9c0,0.8 -1.5,1.5 -1.5,1.5l0,1c0,0 1.5,0.7 1.5,1.5c0,1.3 -0.2,1.6 -0.4,2.9c-0.3,2.1 0.8,3.1 1.8,3.1s2.1,0 2.1,0l0,-2c0,0 -1.8,0.2 -1.8,-1c0,-0.9 0.2,-0.9 0.4,-2.9c0.1,-0.9 -0.5,-1.6 -1.1,-2.1c0.6,-0.5 1.2,-1.1 1.1,-2c-0.3,-2 -0.4,-2 -0.4,-2.9c0,-1.2 1.8,-1.1 1.8,-1.1l0,-2c0,0 -1,0 -2.1,0s-2.1,1 -1.8,3.1z" fill="#444444"/>
 </g>
</svg>